<?xml version="1.0" encoding="UTF-8"?>
<svg width="100" height="60" version="1.1" viewBox="0 0 26.45833 15.874999" xmlns="http://www.w3.org/2000/svg" xmlns:cc="http://creativecommons.org/ns#" xmlns:dc="http://purl.org/dc/elements/1.1/" xmlns:rdf="http://www.w3.org/1999/02/22-rdf-syntax-ns#">
<metadata>
<rdf:RDF>
<cc:Work rdf:about="">
<dc:format>image/svg+xml</dc:format>
<dc:type rdf:resource="http://purl.org/dc/dcmitype/StillImage"/>
<dc:title/>
</cc:Work>
</rdf:RDF>
</metadata>
<g transform="translate(-88.424 -117.86)">
<g transform="translate(-7.3705 10.867)">
<g transform="matrix(.35278 0 0 -.35278 96.9 110.37)">
<path d="m0 0c2.834 2.834 7.473 2.834 10.306 0l9.501-9.501c2.835-2.834 2.835-7.472 0-10.306-2.834-2.834-7.472-2.834-10.306 0l-9.501 9.501c-2.834 2.834-2.834 7.472 0 10.306" fill="#fff"/>
</g>
<g transform="matrix(.35278 0 0 -.35278 121.15 110.37)">
<path d="m0 0c2.834-2.834 2.834-7.472 0-10.306l-9.501-9.501c-2.834-2.834-7.472-2.834-10.306 0s-2.834 7.472 0 10.306l9.501 9.501c2.834 2.834 7.472 2.834 10.306 0" fill="#fff"/>
</g>
<g transform="matrix(.35278 0 0 -.35278 105.7 118.11)">
<path d="m0 0c-1.671 0-3.025-1.354-3.025-3.024 0-1.671 1.354-3.026 3.025-3.026 1.67 0 3.024 1.355 3.024 3.026 0 1.67-1.354 3.024-3.024 3.024" fill="#fff"/>
</g>
<g transform="matrix(.35278 0 0 -.35278 112.34 118.11)">
<path d="m0 0c-1.671 0-3.025-1.354-3.025-3.024 0-1.671 1.354-3.026 3.025-3.026s3.025 1.355 3.025 3.026c0 1.67-1.354 3.024-3.025 3.024" fill="#fff"/>
</g>
</g>
</g>
</svg>
